<svg style="display: none;" aria-hidden="true" xmlns="http://www.w3.org/2000/svg" xmlns:xlink="http://www.w3.org/1999/xlink"><symbol viewBox="0 0 190 40" id="svg-logo"><path d="M27.0368.407715H24.8952L17.1322 12.1784 9.10148.407715H0L17.1322 25.5542 27.0368 10.8408V33.8472H34.5321V.407715H27.5721 27.0368zM177.747 31.9746C175.07 31.9746 172.393 31.4396 169.984 30.102 167.574 28.7644 165.968 27.1593 164.63 24.7517 163.291 22.6115 162.756 19.9364 162.756 17.2612 162.756 14.5861 163.291 11.9109 164.63 9.77077 165.968 7.63064 167.842 5.75803 169.984 4.42045 172.393 3.08287 174.802 2.54784 177.747 2.54784 182.03 2.54784 185.242 3.88542 187.919 6.56058L189.525 4.95549C188.187 3.35039 186.313 2.28033 184.439 1.47778 182.297.675231 180.156.407715 177.747.407715 174.534.407715 171.59 1.21026 168.913 2.54784 166.236 3.88542 164.094 6.02555 162.756 8.70071 161.15 11.3759 160.614 14.051 160.614 17.2612 160.614 20.4714 161.417 23.4141 162.756 25.8217 164.362 28.4969 166.236 30.3695 168.913 31.9746 171.59 33.3122 174.534 34.1147 177.747 34.1147 180.156 34.1147 182.297 33.8472 184.439 33.0447 186.58 32.2421 188.187 31.172 189.793 29.567L188.187 27.9619C185.242 30.637 181.762 31.9746 177.747 31.9746zM127.421 28.2294V.407715H123.941V33.8472H127.153L148.033 6.29307V33.8472H151.513V.407715H148.301L127.421 28.2294zM110.824.407715C103.864.407715 97.1717.407715 90.2117.407715 90.2117 10.0383 89.4086 21.274 84.8579 29.567 83.5194 29.567 82.181 29.567 80.8425 29.567V40.0001H85.3933V33.8472H111.359V40.0001H115.91V29.567H111.092V.407715H110.824zM106.005 29.8345H89.944C93.424 22.344 94.7624 12.981 94.7624 4.68797H106.005V29.8345zM50.8611 24.2166V.407715H44.7042V33.8472H50.3257L67.9933 10.3058V33.8472H73.8825V.407715H68.261L50.8611 24.2166zM0 33.8472H7.49534V19.1338L0 30.3695V33.8472z"/></symbol></svg>