<svg width="41" height="54" viewBox="0 0 41 54" xmlns="http://www.w3.org/2000/svg">
<path d="M28.662 13.098L20.5 4.93602L12.338 13.098L10.182 10.942L20.5 0.624023L30.818 10.942L28.662 13.098Z"/>
<path d="M18.96 2.77979H22.04V35.1198H18.96V2.77979Z"/>
<path d="M35.9 53.6001H5.09998C2.48198 53.6001 0.47998 51.5981 0.47998 48.9801V21.2601C0.47998 18.6421 2.48198 16.6401 5.09998 16.6401H15.88V19.7201H5.09998C4.17598 19.7201 3.55998 20.3361 3.55998 21.2601V48.9801C3.55998 49.9041 4.17598 50.5201 5.09998 50.5201H35.9C36.824 50.5201 37.44 49.9041 37.44 48.9801V21.2601C37.44 20.3361 36.824 19.7201 35.9 19.7201H25.12V16.6401H35.9C38.518 16.6401 40.52 18.6421 40.52 21.2601V48.9801C40.52 51.5981 38.518 53.6001 35.9 53.6001Z"/>
</svg>
